<?xml version="1.0" encoding="UTF-8"?>
<svg width="127px" height="28px" viewBox="0 0 127 28" version="1.1" xmlns="http://www.w3.org/2000/svg" xmlns:xlink="http://www.w3.org/1999/xlink">
    <!-- Generator: Sketch 51.3 (57544) - http://www.bohemiancoding.com/sketch -->
    <title>Group Copy</title>
    <desc>Created with Sketch.</desc>
    <defs></defs>
    <g id="Page-1" stroke="none" stroke-width="1" fill="none" fill-rule="evenodd">
        <g id="FontDaily-Demo-File" transform="translate(-48.000000, -246.000000)">
            <g id="Group-Copy" transform="translate(48.000000, 246.000000)">
                <path d="M75.385,1.27 C75.8150021,1.6500019 76.03,2.1499969 76.03,2.77 L76.03,20.05 C76.03,20.6900032 75.825002,21.2049981 75.415,21.595 C75.0049979,21.985002 74.4600034,22.18 73.78,22.18 C73.0999966,22.18 72.555002,21.985002 72.145,21.595 C71.7349979,21.2049981 71.53,20.6900032 71.53,20.05 L71.53,19.81 C71.0899978,20.5700038 70.465004,21.1649979 69.655,21.595 C68.8449959,22.0250022 67.9300051,22.24 66.91,22.24 C65.6499937,22.24 64.5250049,21.9150033 63.535,21.265 C62.544995,20.6149968 61.7750027,19.7050059 61.225,18.535 C60.6749972,17.3649942 60.4,16.0200076 60.4,14.5 C60.4,12.9799924 60.6749972,11.6450058 61.225,10.495 C61.7750027,9.34499425 62.5399951,8.4600031 63.52,7.84 C64.5000049,7.2199969 65.6299936,6.91 66.91,6.91 C67.910005,6.91 68.8149959,7.1199979 69.625,7.54 C70.435004,7.9600021 71.0599978,8.5499962 71.5,9.31 L71.5,2.68 C71.5,2.079997 71.699998,1.6000018 72.1,1.24 C72.500002,0.8799982 73.0299967,0.7 73.69,0.7 C74.3900035,0.7 74.9549978,0.8899981 75.385,1.27 Z M70.675,17.695 C71.2450028,16.9649964 71.53,15.9200068 71.53,14.56 C71.53,13.1999932 71.2450028,12.1600036 70.675,11.44 C70.1049971,10.7199964 69.2900053,10.36 68.23,10.36 C67.1699947,10.36 66.3500029,10.7149965 65.77,11.425 C65.1899971,12.1350036 64.9,13.1599933 64.9,14.5 C64.9,15.8600068 65.1899971,16.9149963 65.77,17.665 C66.3500029,18.4150038 67.1699947,18.79 68.23,18.79 C69.2900053,18.79 70.1049971,18.4250037 70.675,17.695 Z M90.94,8.485 C91.9800052,9.53500525 92.5,11.1399892 92.5,13.3 L92.5,20.08 C92.5,20.7400033 92.3100019,21.2549982 91.93,21.625 C91.5499981,21.9950019 91.0200034,22.18 90.34,22.18 C89.6999968,22.18 89.1850019,21.985002 88.795,21.595 C88.404998,21.2049981 88.21,20.7000031 88.21,20.08 L88.21,19.87 C87.9099985,20.6100037 87.4100035,21.1899979 86.71,21.61 C86.0099965,22.0300021 85.1900047,22.24 84.25,22.24 C83.249995,22.24 82.345004,22.040002 81.535,21.64 C80.7249959,21.239998 80.0850023,20.6800036 79.615,19.96 C79.1449976,19.2399964 78.91,18.4400044 78.91,17.56 C78.91,16.4799946 79.1849972,15.6300031 79.735,15.01 C80.2850027,14.3899969 81.1699939,13.9400014 82.39,13.66 C83.6100061,13.3799986 85.2799894,13.24 87.4,13.24 L88.18,13.24 L88.18,12.7 C88.18,11.8599958 87.9950018,11.2500019 87.625,10.87 C87.2549981,10.4899981 86.6400043,10.3 85.78,10.3 C84.9199957,10.3 83.6800081,10.599997 82.06,11.2 C81.5999977,11.4200011 81.2100016,11.53 80.89,11.53 C80.4499978,11.53 80.1000013,11.3750016 79.84,11.065 C79.5799987,10.7549985 79.45,10.3500025 79.45,9.85 C79.45,9.449998 79.5399991,9.1200013 79.72,8.86 C79.9000009,8.5999987 80.189998,8.3600011 80.59,8.14 C81.2900035,7.7599981 82.1449949,7.4600011 83.155,7.24 C84.165005,7.0199989 85.1599951,6.91 86.14,6.91 C88.3000108,6.91 89.8999948,7.43499475 90.94,8.485 Z M87.37,18.235 C87.9100027,17.6449971 88.18,16.8800047 88.18,15.94 L88.18,15.43 L87.67,15.43 C86.0499919,15.43 84.9150032,15.5599987 84.265,15.82 C83.6149967,16.0800013 83.29,16.5499966 83.29,17.23 C83.29,17.7900028 83.4749981,18.2449983 83.845,18.595 C84.2150018,18.9450018 84.6799972,19.12 85.24,19.12 C86.1200044,19.12 86.8299973,18.825003 87.37,18.235 Z M96.535,21.64 C96.1049978,21.2799982 95.89,20.7500035 95.89,20.05 L95.89,9.1 C95.89,8.3999965 96.1099978,7.8700018 96.55,7.51 C96.9900022,7.1499982 97.5299968,6.97 98.17,6.97 C98.8100032,6.97 99.3449978,7.1499982 99.775,7.51 C100.205002,7.8700018 100.42,8.3999965 100.42,9.1 L100.42,20.05 C100.42,20.7500035 100.205002,21.2799982 99.775,21.64 C99.3449978,22.0000018 98.8100032,22.18 98.17,22.18 C97.5099967,22.18 96.9650021,22.0000018 96.535,21.64 Z M96.28,3.955 C95.8199977,3.54499795 95.59,2.9900035 95.59,2.29 C95.59,1.5899965 95.8199977,1.040002 96.28,0.64 C96.7400023,0.239998 97.369996,0.04 98.17,0.04 C98.9500039,0.04 99.5749976,0.24499795 100.045,0.655 C100.515002,1.06500205 100.75,1.6099966 100.75,2.29 C100.75,2.9900035 100.520002,3.54499795 100.06,3.955 C99.5999977,4.36500205 98.970004,4.57 98.17,4.57 C97.369996,4.57 96.7400023,4.36500205 96.28,3.955 Z M104.545,21.64 C104.114998,21.2799982 103.9,20.7500035 103.9,20.05 L103.9,2.83 C103.9,2.1299965 104.114998,1.6000018 104.545,1.24 C104.975002,0.8799982 105.519997,0.7 106.18,0.7 C106.820003,0.7 107.354998,0.8799982 107.785,1.24 C108.215002,1.6000018 108.43,2.1299965 108.43,2.83 L108.43,20.05 C108.43,20.7500035 108.215002,21.2799982 107.785,21.64 C107.354998,22.0000018 106.820003,22.18 106.18,22.18 C105.519997,22.18 104.975002,22.0000018 104.545,21.64 Z M122.725,7.33 C123.055002,7.129999 123.409998,7.03 123.79,7.03 C124.370003,7.03 124.879998,7.21499815 125.32,7.585 C125.760002,7.95500185 125.98,8.3999974 125.98,8.92 C125.98,9.2000014 125.910001,9.4799986 125.77,9.76 L117.7,26.32 C117.499999,26.7400021 117.230002,27.054999 116.89,27.265 C116.549998,27.4750011 116.190002,27.58 115.81,27.58 C115.249997,27.58 114.760002,27.4000018 114.34,27.04 C113.919998,26.6799982 113.71,26.2400026 113.71,25.72 C113.71,25.3999984 113.779999,25.1000014 113.92,24.82 L115.9,20.71 L110.56,9.76 C110.439999,9.4799986 110.38,9.2100013 110.38,8.95 C110.38,8.4099973 110.614998,7.9500019 111.085,7.57 C111.555002,7.1899981 112.089997,7 112.69,7 C113.090002,7 113.459998,7.10499895 113.8,7.315 C114.140002,7.52500105 114.409999,7.8399979 114.61,8.26 L118.33,16.36 L121.96,8.26 C122.140001,7.8399979 122.394998,7.530001 122.725,7.33 Z" id="fontdaily" fill="#A6B0C2"></path>
                <path d="M8.98,4.9 C8.6199982,5.3400022 8.44,5.959996 8.44,6.76 L8.44,7.27 L10.54,7.27 C11.9000068,7.27 12.58,7.8399943 12.58,8.98 C12.58,10.1000056 11.9000068,10.66 10.54,10.66 L8.44,10.66 L8.44,20.02 C8.44,20.7200035 8.22500215,21.2499982 7.795,21.61 C7.36499785,21.9700018 6.8300032,22.15 6.19,22.15 C5.5299967,22.15 4.98500215,21.9700018 4.555,21.61 C4.12499785,21.2499982 3.91,20.7200035 3.91,20.02 L3.91,10.66 L2.71,10.66 C1.3699933,10.66 0.7,10.1000056 0.7,8.98 C0.7,7.8399943 1.3699933,7.27 2.71,7.27 L3.91,7.27 C3.91,5.3499904 4.4399947,3.8400055 5.5,2.74 C6.5600053,1.6399945 8.0199907,1.0200007 9.88,0.88 L10.66,0.82 L11.2,0.79 C12.5800069,0.79 13.27,1.3199947 13.27,2.38 C13.27,3.4200052 12.6900058,3.9899995 11.53,4.09 L10.75,4.15 C9.9299959,4.2100003 9.3400018,4.4599978 8.98,4.9 Z M16.99,21.295 C15.8099941,20.6649969 14.9000032,19.7750058 14.26,18.625 C13.6199968,17.4749943 13.3,16.1200078 13.3,14.56 C13.3,12.9999922 13.6199968,11.6450058 14.26,10.495 C14.9000032,9.34499425 15.8099941,8.4600031 16.99,7.84 C18.1700059,7.2199969 19.5399922,6.91 21.1,6.91 C22.6600078,6.91 24.0299941,7.2199969 25.21,7.84 C26.3900059,8.4600031 27.2999968,9.34499425 27.94,10.495 C28.5800032,11.6450058 28.9,12.9999922 28.9,14.56 C28.9,16.1200078 28.5800032,17.4749943 27.94,18.625 C27.2999968,19.7750058 26.3900059,20.6649969 25.21,21.295 C24.0299941,21.9250032 22.6600078,22.24 21.1,22.24 C19.5399922,22.24 18.1700059,21.9250032 16.99,21.295 Z M24.4,14.56 C24.4,13.1399929 24.1150028,12.0800035 23.545,11.38 C22.9749971,10.6799965 22.1600053,10.33 21.1,10.33 C18.899989,10.33 17.8,11.7399859 17.8,14.56 C17.8,17.3800141 18.899989,18.79 21.1,18.79 C23.300011,18.79 24.4,17.3800141 24.4,14.56 Z M44.83,8.455 C45.6900043,9.48500515 46.12,11.0399896 46.12,13.12 L46.12,20.05 C46.12,20.7100033 45.915002,21.2299981 45.505,21.61 C45.0949979,21.9900019 44.5400035,22.18 43.84,22.18 C43.1399965,22.18 42.590002,21.9900019 42.19,21.61 C41.789998,21.2299981 41.59,20.7100033 41.59,20.05 L41.59,13.33 C41.59,12.329995 41.4050018,11.6000023 41.035,11.14 C40.6649981,10.6799977 40.0900039,10.45 39.31,10.45 C38.3699953,10.45 37.6150028,10.749997 37.045,11.35 C36.4749971,11.950003 36.19,12.749995 36.19,13.75 L36.19,20.05 C36.19,20.7100033 35.990002,21.2299981 35.59,21.61 C35.189998,21.9900019 34.6400035,22.18 33.94,22.18 C33.2399965,22.18 32.685002,21.9900019 32.275,21.61 C31.8649979,21.2299981 31.66,20.7100033 31.66,20.05 L31.66,9.04 C31.66,8.4199969 31.8749978,7.9200019 32.305,7.54 C32.7350021,7.1599981 33.2899966,6.97 33.97,6.97 C34.5900031,6.97 35.094998,7.15499815 35.485,7.525 C35.8750019,7.89500185 36.07,8.3699971 36.07,8.95 L36.07,9.37 C36.5900026,8.569996 37.2649958,7.9600021 38.095,7.54 C38.9250041,7.1199979 39.8599948,6.91 40.9,6.91 C42.6600088,6.91 43.9699957,7.42499485 44.83,8.455 Z M59.02,19.33 C59.3000014,19.5900013 59.44,19.9699975 59.44,20.47 C59.44,21.0500029 59.2100023,21.4899985 58.75,21.79 C58.2899977,22.0900015 57.6300043,22.2100003 56.77,22.15 L55.93,22.09 C52.4299825,21.8099986 50.68,19.9800169 50.68,16.6 L50.68,10.66 L49.48,10.66 C48.8199967,10.66 48.3200017,10.5150015 47.98,10.225 C47.6399983,9.93499855 47.47,9.5200027 47.47,8.98 C47.47,8.4199972 47.6399983,7.99500145 47.98,7.705 C48.3200017,7.41499855 48.8199967,7.27 49.48,7.27 L50.68,7.27 L50.68,4.93 C50.68,4.2699967 50.8849979,3.7500019 51.295,3.37 C51.705002,2.9899981 52.2599965,2.8 52.96,2.8 C53.6600035,2.8 54.209998,2.9899981 54.61,3.37 C55.010002,3.7500019 55.21,4.2699967 55.21,4.93 L55.21,7.27 L57.31,7.27 C58.6700068,7.27 59.35,7.8399943 59.35,8.98 C59.35,9.5200027 59.1800017,9.93499855 58.84,10.225 C58.4999983,10.5150015 57.9900034,10.66 57.31,10.66 L55.21,10.66 L55.21,16.93 C55.21,17.530003 55.3499986,17.9849985 55.63,18.295 C55.9100014,18.6050016 56.3199973,18.7799998 56.86,18.82 L57.7,18.88 C58.300003,18.9200002 58.7399986,19.0699987 59.02,19.33 Z" id="fontdaily-copy" fill="#4DA1FF"></path>
                <path d="M62,25 L110,25 C110.552285,25 111,25.4477153 111,26 L111,26 C111,26.5522847 110.552285,27 110,27 L62,27 C61.4477153,27 61,26.5522847 61,26 L61,26 C61,25.4477153 61.4477153,25 62,25 Z" id="Rectangle" fill="#A6B0C2" fill-rule="nonzero"></path>
                <rect id="Rectangle-Copy" fill="#A6B0C2" fill-rule="nonzero" x="122" y="25" width="5" height="2" rx="1"></rect>
            </g>
        </g>
    </g>
</svg>